<svg width="21" height="21" viewBox="0 0 21 21" fill="none" xmlns="http://www.w3.org/2000/svg">
<path d="M10.5105 8.01035C9.89728 8.01035 9.32306 8.24824 8.88829 8.683C8.45558 9.11777 8.21564 9.69199 8.21564 10.3052C8.21564 10.9184 8.45558 11.4926 8.88829 11.9273C9.32306 12.3601 9.89728 12.6 10.5105 12.6C11.1236 12.6 11.6979 12.3601 12.1326 11.9273C12.5653 11.4926 12.8053 10.9184 12.8053 10.3052C12.8053 9.69199 12.5653 9.11777 12.1326 8.683C11.9203 8.46902 11.6675 8.29936 11.389 8.18389C11.1106 8.06841 10.8119 8.00943 10.5105 8.01035ZM18.9658 12.8399L17.6246 11.6936C17.6882 11.3039 17.721 10.9061 17.721 10.5103C17.721 10.1144 17.6882 9.71455 17.6246 9.32695L18.9658 8.18056C19.0672 8.09383 19.1397 7.97831 19.1737 7.84936C19.2078 7.72041 19.2018 7.58415 19.1566 7.45869L19.1381 7.40537C18.769 6.37319 18.2159 5.41643 17.5057 4.58144L17.4688 4.53838C17.3825 4.43697 17.2676 4.36407 17.1391 4.32929C17.0106 4.29451 16.8746 4.29949 16.7489 4.34355L15.0837 4.93623C14.4685 4.43173 13.7835 4.03388 13.0411 3.75703L12.7192 2.01591C12.6949 1.88475 12.6312 1.76408 12.5367 1.66994C12.4422 1.5758 12.3213 1.51265 12.1901 1.48886L12.1347 1.47861C11.0683 1.28584 9.94445 1.28584 8.87804 1.47861L8.82267 1.48886C8.69141 1.51265 8.5705 1.5758 8.47599 1.66994C8.38148 1.76408 8.31786 1.88475 8.29357 2.01591L7.96954 3.76523C7.23419 4.04428 6.54915 4.44117 5.94132 4.94033L4.26378 4.34355C4.1382 4.29914 4.00208 4.29399 3.87351 4.32879C3.74493 4.36358 3.62999 4.43669 3.54396 4.53838L3.50704 4.58144C2.79806 5.41731 2.24513 6.37384 1.87462 7.40537L1.85617 7.45869C1.76388 7.71504 1.83976 8.00214 2.04689 8.18056L3.40451 9.33925C3.34093 9.7248 3.31017 10.1186 3.31017 10.5082C3.31017 10.9019 3.34093 11.2957 3.40451 11.6771L2.05099 12.8358C1.94967 12.9226 1.87716 13.0381 1.84309 13.167C1.80902 13.296 1.81501 13.4323 1.86027 13.5577L1.87872 13.611C2.24992 14.6426 2.79747 15.5962 3.51115 16.435L3.54806 16.478C3.6343 16.5794 3.74925 16.6523 3.87775 16.6871C4.00625 16.7219 4.14227 16.7169 4.26788 16.6728L5.94542 16.0761C6.55656 16.5785 7.23742 16.9764 7.97365 17.2512L8.29767 19.0005C8.32196 19.1316 8.38559 19.2523 8.48009 19.3465C8.5746 19.4406 8.69551 19.5038 8.82677 19.5275L8.88214 19.5378C9.95904 19.7316 11.0619 19.7316 12.1388 19.5378L12.1942 19.5275C12.3254 19.5038 12.4463 19.4406 12.5408 19.3465C12.6353 19.2523 12.699 19.1316 12.7233 19.0005L13.0452 17.2594C13.7876 16.9805 14.4726 16.5847 15.0878 16.0802L16.753 16.6728C16.8786 16.7173 17.0147 16.7224 17.1433 16.6876C17.2719 16.6528 17.3868 16.5797 17.4729 16.478L17.5098 16.435C18.2234 15.5921 18.771 14.6426 19.1422 13.611L19.1607 13.5577C19.2488 13.3034 19.173 13.0184 18.9658 12.8399ZM10.5105 13.9104C8.51915 13.9104 6.90519 12.2965 6.90519 10.3052C6.90519 8.31386 8.51915 6.6999 10.5105 6.6999C12.5018 6.6999 14.1157 8.31386 14.1157 10.3052C14.1157 12.2965 12.5018 13.9104 10.5105 13.9104Z" fill="#C2C2C2"/>
</svg>
