<svg width="21" height="21" viewBox="0 0 21 21" fill="none" xmlns="http://www.w3.org/2000/svg">
<g clip-path="url(#clip0_287_35)">
<path d="M0 6.23438C0 2.78906 2.78906 0 6.23438 0H14.7656C18.2109 0 21 2.78906 21 6.23438V14.7656C21 18.2109 18.2109 21 14.7656 21H6.23438C2.78906 21 0 18.2109 0 14.7656V6.23438ZM7.56328 4.75781V5.72578L4.11797 7.72734V11.2219L3.19922 11.7469V15.1102L6.11953 16.8L7.38281 16.0617L10.5164 17.8664L13.6664 16.0453L14.9625 16.8L17.8664 15.1266V11.7469L16.9148 11.2055V7.72734L13.3875 5.67656V4.75781L10.4836 3.06797L7.56328 4.75781ZM16.1602 8.17031V10.7789L14.9461 10.0734L12.0258 11.7633V15.1266L12.8953 15.6187L10.5 16.9969L8.1375 15.6352L9.02344 15.1266V11.7633L6.10313 10.0734L4.85625 10.7953V8.17031L7.54688 6.61172H7.56328V8.1375L10.4672 9.81094L13.3875 8.1375V6.5625L16.1602 8.17031ZM12.7969 14.7V12.6492L14.5688 13.6664V15.7172L12.7969 14.7ZM17.1117 14.7L15.3234 15.7336V13.6828L17.1117 12.6492V14.7ZM3.95391 14.7V12.6492L5.74219 13.6664V15.7336L3.95391 14.7ZM8.25234 14.7L6.48047 15.7172V13.6664L8.25234 12.6328V14.7ZM13.1578 12.0094L14.9461 10.9758L16.718 12.0094L14.9461 13.0266L13.1578 12.0094ZM7.875 12.0094L6.08672 13.043L4.31484 12.0094L6.08672 10.9758L7.875 12.0094ZM8.31797 7.72734V5.67656L10.0898 6.69375V8.76094L8.31797 7.72734ZM12.6164 7.72734L10.8445 8.74453V6.69375L12.6164 5.66016V7.72734ZM8.69531 5.02031L10.4672 4.00312L12.2391 5.02031L10.4672 6.05391L8.69531 5.02031Z" fill="#7248EB"/>
</g>
<defs>
<clipPath id="clip0_287_35">
<rect width="21" height="21" fill="white"/>
</clipPath>
</defs>
</svg>
