<svg width="19" height="18" viewBox="0 0 19 18" fill="none" xmlns="http://www.w3.org/2000/svg">
<g clip-path="url(#clip0_287_99)">
<path fill-rule="evenodd" clip-rule="evenodd" d="M10.2668 7.23356L13.8564 0.429562C13.9246 0.300727 14.0292 0.192396 14.1586 0.116689C14.2881 0.0409816 14.4372 0.00088501 14.5893 0.00088501C14.7414 0.00088501 14.8905 0.0409816 15.0199 0.116689C15.1494 0.192396 15.254 0.300727 15.3221 0.429562L18.9131 7.23356C18.9756 7.35193 19.0051 7.48345 18.9988 7.61564C18.9925 7.74783 18.9507 7.87631 18.8772 7.98888C18.8038 8.10146 18.7013 8.19439 18.5793 8.25886C18.4573 8.32334 18.32 8.35721 18.1803 8.35728H10.9983C10.8586 8.35721 10.7213 8.32334 10.5993 8.25886C10.4773 8.19439 10.3748 8.10146 10.3013 7.98888C10.2279 7.87631 10.1861 7.74783 10.1798 7.61564C10.1735 7.48345 10.2043 7.35193 10.2668 7.23356ZM0.678571 0.642991C0.498603 0.642991 0.326006 0.71072 0.198749 0.831279C0.0714922 0.951838 0 1.11535 0 1.28585L0 7.71442C0 7.88492 0.0714922 8.04843 0.198749 8.16899C0.326006 8.28955 0.498603 8.35728 0.678571 8.35728H7.46429C7.64425 8.35728 7.81685 8.28955 7.94411 8.16899C8.07137 8.04843 8.14286 7.88492 8.14286 7.71442V1.28585C8.14286 1.11535 8.07137 0.951838 7.94411 0.831279C7.81685 0.71072 7.64425 0.642991 7.46429 0.642991H0.678571ZM8.14286 14.143C8.14286 15.166 7.7139 16.147 6.95036 16.8704C6.18682 17.5938 5.15124 18.0001 4.07143 18.0001C2.99162 18.0001 1.95603 17.5938 1.19249 16.8704C0.428953 16.147 0 15.166 0 14.143C0 13.12 0.428953 12.1389 1.19249 11.4156C1.95603 10.6922 2.99162 10.2858 4.07143 10.2858C5.15124 10.2858 6.18682 10.6922 6.95036 11.4156C7.7139 12.1389 8.14286 13.12 8.14286 14.143ZM11.5357 16.0716C11.2658 16.0716 11.0069 16.1732 10.816 16.354C10.6251 16.5348 10.5179 16.7801 10.5179 17.0358C10.5179 17.2916 10.6251 17.5369 10.816 17.7177C11.0069 17.8985 11.2658 18.0001 11.5357 18.0001H17.6429C17.9128 18.0001 18.1717 17.8985 18.3626 17.7177C18.5535 17.5369 18.6607 17.2916 18.6607 17.0358C18.6607 16.7801 18.5535 16.5348 18.3626 16.354C18.1717 16.1732 17.9128 16.0716 17.6429 16.0716H11.5357ZM10.5179 14.143C10.5179 13.8872 10.6251 13.642 10.816 13.4611C11.0069 13.2803 11.2658 13.1787 11.5357 13.1787H17.6429C17.9128 13.1787 18.1717 13.2803 18.3626 13.4611C18.5535 13.642 18.6607 13.8872 18.6607 14.143C18.6607 14.3987 18.5535 14.644 18.3626 14.8248C18.1717 15.0057 17.9128 15.1073 17.6429 15.1073H11.5357C11.2658 15.1073 11.0069 15.0057 10.816 14.8248C10.6251 14.644 10.5179 14.3987 10.5179 14.143ZM11.5357 10.2858C11.2658 10.2858 11.0069 10.3874 10.816 10.5683C10.6251 10.7491 10.5179 10.9944 10.5179 11.2501C10.5179 11.5059 10.6251 11.7511 10.816 11.932C11.0069 12.1128 11.2658 12.2144 11.5357 12.2144H17.6429C17.9128 12.2144 18.1717 12.1128 18.3626 11.932C18.5535 11.7511 18.6607 11.5059 18.6607 11.2501C18.6607 10.9944 18.5535 10.7491 18.3626 10.5683C18.1717 10.3874 17.9128 10.2858 17.6429 10.2858H11.5357Z" fill="#C1C1C1"/>
</g>
<defs>
<clipPath id="clip0_287_99">
<rect width="19" height="18" fill="white"/>
</clipPath>
</defs>
</svg>
