<svg width="13" height="17" viewBox="0 0 13 17" fill="none" xmlns="http://www.w3.org/2000/svg">
<path d="M0 17H13V13.9643C12.9983 12.8376 12.5184 11.7575 11.6654 10.9609C10.8125 10.1642 9.65621 9.71589 8.45 9.71429H4.55C3.34379 9.71589 2.18748 10.1642 1.33456 10.9609C0.481645 11.7575 0.00171947 12.8376 0 13.9643V17ZM1.95 4.25C1.95 5.09057 2.21685 5.91226 2.71681 6.61117C3.21677 7.31008 3.92739 7.85482 4.75879 8.17649C5.59019 8.49816 6.50505 8.58232 7.38766 8.41834C8.27028 8.25435 9.08101 7.84958 9.71734 7.2552C10.3537 6.66083 10.787 5.90355 10.9626 5.07913C11.1381 4.25471 11.048 3.40018 10.7037 2.6236C10.3593 1.84701 9.77609 1.18325 9.02784 0.716254C8.2796 0.249258 7.3999 0 6.5 0C5.29326 0 4.13595 0.447767 3.28266 1.2448C2.42937 2.04183 1.95 3.12283 1.95 4.25Z" fill="#C1C1C1"/>
</svg>
